<?xml version="1.0" encoding="utf-8"?>
<!-- Generator: Adobe Illustrator 23.0.0, SVG Export Plug-In . SVG Version: 6.00 Build 0)  -->
<svg version="1.1" xmlns="http://www.w3.org/2000/svg" xmlns:xlink="http://www.w3.org/1999/xlink" x="0px" y="0px"
	 viewBox="0 0 835 597" style="enable-background:new 0 0 835 597;" xml:space="preserve">
<style type="text/css">
	.st0{fill:#EC9AC1;}
	.st1{fill:#A480B8;}
	.st2{fill:#8B0E3D;}
	.st3{fill:#FEFDFD;}
	.st4{fill:#98D2C5;}
	.st5{fill:#DAC1DC;}
	.st6{fill:url(#SVGID_1_);}
</style>
<g id="Capa_1">
	<path class="st0" d="M616.54,74.71c2.62-3.71,4.41-7.86,6.28-11.97c1.34-0.4,2.31-1.24,2.94-2.49c0.78-0.02,1.55-0.04,2.33-0.06
		c2.45,1.87,3.91,4.46,5.26,7.14c3.8,7.54,7.23,15.27,11.58,22.53c2.25,5.34,4.43,10.71,8.01,15.36c0.07,0.46,0.14,0.92,0.21,1.39
		c0.22,0.28,0.44,0.55,0.66,0.83l-0.06-0.02c1.16,3.67,2.47,7.27,5.32,10.05c0.16,1.4,1.14,2.17,2.2,2.89
		c1.45,2.87,3.78,4.36,7,4.43c4.83,2.11,10.08,1.89,15.14,2.71c5.05,0.62,9.98,2.13,15.13,2.01c4.45,1.58,9.18,1.35,13.76,2.09
		c5.48,1.48,11.09,2.2,16.73,2.66c1.2,0.41,2.4,0.83,3.6,1.24c1.65,3.23,1.09,5.81-1.64,8.4c-6.58,6.26-12.88,12.81-19.37,19.16
		c-6.66,6.52-13.55,12.82-20.08,19.48c-3.63,3.7-6.46,8.05-6.26,13.64c-0.51,5.2,0.8,10.16,1.96,15.14c0.3,5.15,1.02,10.24,2.5,15.2
		c0.94,5.05,1.24,10.21,2.76,15.15c-0.35,5.22,1.54,10.14,1.97,15.26c-0.15,1.96-0.29,3.92-0.44,5.88c-0.47,0.3-0.94,0.6-1.42,0.9
		c-3.21,0.34-6.19-0.58-9.13-1.67c-3.18-2.75-7.07-4.31-10.74-6.14c-6.53-3.25-12.55-7.51-19.54-9.85c-3.8-3.39-8.7-4.85-12.99-7.37
		c-2.36-1.38-4.55-3.18-7.5-3.13c-0.64-1.71-1.89-1.4-3.18-0.97c-1.73-0.57-3.46-0.56-5.19-0.01c-1.27-0.56-2.33-0.09-3.55,0.41
		c-6.05,2.47-11.62,5.84-17.3,9.01c-3.76,2.1-8.07,3.3-11.15,6.56c-3.95,1.5-7.71,3.36-11.22,5.71c-1.44,0.47-2.86,0.97-3.86,2.21
		c-0.69,0.26-1.39,0.5-2.07,0.78c-4.17,1.69-7.62,5.04-12.39,5.32c-1.97-1.43-3.11-3.17-2.52-5.77c0.2-0.9,0.42-2.07-0.88-2.58
		c0.69-3.22,1.44-6.43,1.32-9.75c0.72-0.4,1.63-0.73,0.62-1.74c0.09-0.97,0.17-1.95,0.26-2.92c0.62-0.27,0.97-0.74,1.09-1.42
		c1.27-7.4,2.78-14.77,3.72-22.21c0.38-3.02,1.71-5.98,1.01-9.12c0.49-3.07,0.98-6.14,1.47-9.2c0.1-0.05,0.2-0.1,0.3-0.15
		c-0.09-0.17-0.17-0.34-0.26-0.51c0-1.01,0-2.03,0-3.04c0.8-4.4-2.35-10.46-6.77-13c-0.5-0.98-1.25-1.73-2.23-2.24
		c-2.42-3.67-5.31-6.86-9.23-8.99c-0.27-0.77-0.79-1.29-1.57-1.54c-0.31-1.03-1.11-1.5-2.07-1.78c-0.49-1.48-1.47-2.47-2.98-2.92
		c-3.51-4.64-7.48-8.8-12.27-12.14c-0.76-1.24-1.74-2.24-2.99-2.98c-1.17-2.56-3.27-4.27-5.47-5.88c-0.26-0.29-0.53-0.57-0.79-0.86
		c-0.32-1.97-1.96-3.07-3.03-4.54c0-0.78,0.01-1.56,0.01-2.34c0.7-0.32,1.24-0.77,1.45-1.55c1.3-0.38,2.59-0.77,3.89-1.15
		c0.62,0.36,1.12,0.22,1.52-0.36c1.85,0.21,3.62-0.07,5.32-0.84c5.41-0.07,10.69-1.04,15.94-2.24c1.01-0.09,2.01-0.17,3.02-0.26
		c0.63,0.29,1.16,0.19,1.54-0.43c1.26-0.14,2.52-0.29,3.78-0.43c0.62,0.39,1.12,0.22,1.52-0.35c1.26-0.1,2.52-0.21,3.78-0.31
		c5.33-0.75,10.67-1.51,16-2.26c5.66-0.74,11.2-1.74,15.11-6.53c5.14-3.78,7.24-9.39,9.08-15.15c2.56-3.14,3.82-6.99,5.5-10.58
		C610.06,87.84,613.96,81.6,616.54,74.71z"/>
	<path class="st0" d="M579.48,275.75c0.65-4.57,3.97-6.78,7.63-8.72c1.85-0.98,3.79-1.81,5.28-3.36c4.25-1.64,8.28-3.71,12.1-6.18
		c4.23-0.96,5.48-0.04,6.1,4.5c0.57,4.23,0.92,8.5,1.73,12.68c3.78,19.4,4.1,39.04,4.74,58.69c0.1,3.22-0.46,6.78,1.3,9.88
		c0.02,0.51,0.04,1.02,0.06,1.54c-0.71,6.16-0.99,12.29,1.11,18.27c0.02,0.96,0.03,1.92,0.05,2.88c-1.85,1.62-2.02,3.21,0.06,4.78
		c0.07,2.5,0.14,5.01,0.21,7.51c-0.94,0.73-1.01,1.47-0.01,2.22c0.03,1.28,0.06,2.57,0.09,3.85c-1.17,3.11-1.22,6.17,0.44,9.15
		c0.01,1.25,0.03,2.49,0.04,3.74c-0.97,2.29-0.93,4.58-0.02,6.88c-0.01,1.49-0.02,2.99-0.03,4.48c-1.67,3.49-1.46,7.06-0.45,10.67
		c-0.07,2.37-0.18,4.74-0.19,7.11c-0.01,1.74-0.16,3.6,1.98,4.39c1.57,2.29,3.94,1.18,5.93,1.25c5.61,0.17,7.5-2.73,5.6-8.21
		c0-5.05,0-10.11-0.01-15.16c1.22-5.06,1.22-10.13,0-15.19c0-5.05,0-10.11,0-15.16c1.28-5.05,1.06-10.12,0.16-15.19
		c0.05-0.25,0.03-0.5-0.06-0.74c0.03-4.81,0.05-9.62,0.08-14.42c1.12-5.52,1.86-11.06,1.06-16.7c0.13-4.3,0.26-8.6,0.39-12.9
		c0.1-0.23,0.14-0.47,0.11-0.72c0.96-4.03,2.12-8.04,0.82-12.22c0.05-0.95,0.1-1.89,0.14-2.84c0.94-1.92,0.4-4,0.64-5.99
		c1.19-0.61,1.7-1.37,0.55-2.49c0.23-2.02,0.47-4.05,0.7-6.07c0.83-2.42,1.59-4.85,1.27-7.46c0.05-4.15,2.17-8.04,1.6-12.27
		c0.06-0.77,0.12-1.53,0.18-2.3c1-1.89,1.67-3.86,1.29-6.05c0.06-0.52,0.13-1.03,0.19-1.55c0.61-0.32,0.81-0.85,0.79-1.5
		c1.16-1.12,2.6-0.78,3.97-0.77c0.2,0.13,0.4,0.26,0.6,0.39c0.33,0.11,0.65,0.22,0.98,0.32c1.18,1.32,2.69,1.97,4.4,2.24
		c0.69,0.33,1.38,0.65,2.07,0.98c0.29,0.82,0.77,1.36,1.73,1.21c3.66,2.13,7.34,4.21,11.29,5.76c1.69,2.22,5.1,2.29,6.33,5.09
		c-0.04,0.76-0.08,1.52-0.12,2.28c-1.57,1.98-2.31,4.25-2.43,6.75l0.03-0.02c-1.53,0.88-1.54,2.37-1.57,3.86
		c-0.72,0.6-0.73,1.44-0.76,2.27c-1.09,1.01-1.51,2.28-1.44,3.73c-2.42,3.46-3.75,7.34-4.54,11.45c-2.54,4.79-4.31,9.85-5.29,15.18
		c-1.94,4.89-3.49,9.88-3.79,15.17c-1.69,4.93-2.34,10.01-2.09,15.21c0,0.53-0.01,1.06-0.01,1.59c-0.93,0.54-0.82,1.47-0.82,2.33
		c-0.01,8-0.02,16-0.01,24c0,0.86-0.1,1.78,0.78,2.36c0.09,1.26,0.17,2.52,0.26,3.79c-0.39,1.09-0.53,2.14,0.41,3.05
		c0.11,1.51,0.22,3.03,0.33,4.54c-0.38,1.95,0.22,3.68,1.19,5.32c0.07,0.77,0.14,1.54,0.2,2.31c-0.24,1.7,0.28,3.18,1.29,4.53
		c0.05,0.51,0.11,1.02,0.16,1.53c-0.01,1.91,0.28,3.7,1.96,4.93l-0.14,0.14c0,0,0.07,0.19,0.07,0.19
		c1.12,7.42,4.37,13.99,8.13,20.34c0.73,1.24,1.89,2.39,3.61,2.4c0.14,0.47,0.33,0.41,0.56,0.06l-0.03-0.13
		c1.22,0.16,2.44,0.32,3.66,0.48c0.01,0.17,0.07,0.32,0.19,0.44c0.29,0.17,0.58,0.33,0.87,0.5c1.97,0.98,2.33,2.79,2.44,4.73
		c-0.8,7.62,0.25,9.23,5.88,8.97c2.74,0.23,5.47,0.33,8.21-0.09c7.39,0.47,14.78,0.44,22.18-0.03c5,0.04,10,0.09,15,0.13
		c1.55,0.01,3.1,0.02,4.64,0.03c0.76,0.04,1.51,0.09,2.27,0.13c2.56,2.4,3.3,5.32,3.22,8.81c-0.2,8.79-0.11,17.59-0.04,26.38
		c0.04,5.19,1.43,6.56,6.49,6.46c2.9-0.06,5.75,0.17,8.56,0.83c0.88,2.86,1.38,5.7,1,8.78c-0.2,1.63-1.11,3.81,1.12,5.06
		c-0.01,3.18-0.02,6.37-0.02,9.55c-0.86,0.31-1.36,0.8-0.89,1.77c-0.15,0.3-0.3,0.61-0.45,0.91c-0.18,0.19-0.36,0.37-0.54,0.56
		l-0.17,0.2c-0.67-0.16-1.21,0.01-1.56,0.63c-0.76,0.05-1.52,0.11-2.28,0.16c-14.7-0.42-29.4-0.42-44.1,0.02c-0.46,0-0.92,0-1.38,0
		c-12.09-0.09-24.19-0.24-36.28-0.26c-7.68-0.01-15.36,0.17-23.04,0.26c-0.46,0-0.92,0-1.38,0c-12.09-0.09-24.19-0.24-36.28-0.26
		c-7.68-0.01-15.36,0.17-23.04,0.26c-0.46,0-0.92,0-1.38,0c-12.09-0.09-24.19-0.24-36.28-0.26c-7.68-0.01-15.36,0.17-23.04,0.26
		c-0.46,0-0.92,0-1.38,0c-8.39-0.46-16.78-0.41-25.18,0c-1-0.06-2-0.12-2.99-0.17c-0.37-0.6-0.91-0.81-1.59-0.63l-0.16-0.18
		c0.03-0.4-0.16-0.59-0.56-0.55c0,0-0.2-0.15-0.19-0.15c-0.38-3.3-0.72-6.59-0.66-9.94c0.03-1.78,0.7-3.72-0.65-5.36
		c0.03-2.51,0.06-5.02,0.09-7.53c1.33-0.27,1.46-1.24,1.34-2.34c2.12-2.32,4.97-2.11,7.72-2.24c4.56,1.31,7.46-0.17,7.49-4.32
		c0.07-10.98-0.13-21.95-0.23-32.93c0.54-2.73,2.2-3.91,4.97-3.83c1.46,0.04,2.93-0.2,4.39-0.31c5.1,0.55,10.2,0.46,15.31,0.15
		c5.02,0.33,10.05,0.32,15.07,0c5.08,0.42,10.17,0.28,15.26,0.08c4.98,0,6.92-2.39,6.03-7.43c1.62-6.54,2.46-7.38,7.63-7.57
		c0.74-0.03,1.48-0.1,2.22-0.15c7.46,0.44,7.77,0.23,11.04-7.39c0.57-0.97,1.27-1.89,1.68-2.92c3.06-7.73,5.59-15.62,6.97-23.85
		c0.1-0.04,0.2-0.07,0.3-0.11c-0.08-0.16-0.17-0.31-0.25-0.47c0.23-1.02,0.47-2.04,0.7-3.06c1.15-2.16,1.81-4.41,1.34-6.89
		c0.05-0.5,0.1-0.99,0.15-1.49c0.71-2.98,2.36-5.89,0.81-9.07c0.8-4.28,1.11-8.59,0.65-12.93c0.22-4.53,0.34-9.07-0.16-13.59
		c-0.23-5.65-0.44-11.29-2.13-16.75c-0.81-7.77-3.34-15.1-5.99-22.37c-1-2.74-1.12-5.93-3.55-8.06c-1.37-5.3-3.19-10.42-6.12-15.08
		C582.71,283.14,579.55,279.98,579.48,275.75z"/>
	<path class="st1" d="M1323.45,230.04c-0.06-0.76-0.56-0.93-1.21-0.9c1.01-0.96,2.17-1.69,3.42-2.28l-0.02-0.03
		C1325.54,228.33,1324.37,229.1,1323.45,230.04z"/>
	<path class="st1" d="M1325.67,226.86c0.11-0.07,0.22-0.14,0.33-0.2c0.03,0.34-0.23,0.12-0.35,0.18
		C1325.65,226.84,1325.67,226.86,1325.67,226.86z"/>
	<g>
		<path class="st2" d="M163.57,468.74c-6.28,6.91-13.79,10.74-22.37,12.58c-7.15,1.53-14.41,1.77-21.69,1.97
			c-8.41,0.23-16.83,0.46-24.93,3.15c-8.15,2.71-14.92,7.03-18.05,15.6c-0.68,1.86-2.18,2.48-4.04,2.06
			c-1.79-0.4-2.26-1.74-2.28-3.44c-0.12-11.75,4.38-21.83,11.18-31.06c4.07-5.52,8.78-10.43,14.45-14.36
			c0.29-0.2,0.63-0.34,0.82-0.77c-11.15-1.2-20.82-6.36-31.05-9.7c-4.58-1.49-9.31-2.43-14.09-1.42
			c-8.89,1.88-13.51,8.11-15.74,16.42c-1.23,4.56-1.01,9.18,0.49,13.67c0.61,1.83,0.5,3.28-1.33,4.25c-1.81,0.95-2.94-0.01-4.01-1.4
			c-20.2-26.05-6.43-64.82,25.64-72.05c7.1-1.6,14.31-1.12,21.51-0.82c7.48,0.32,14.86-0.01,21.72-3.55
			c2.18-1.12,4.04-2.64,5.8-4.34c1.16-1.12,1.24-1.78-0.06-3.03c-7.62-7.3-11.82-16.19-11.81-26.87c0-4.16,1.04-8.1,3.03-11.76
			c0.39-0.72,0.78-1.46,1.52-1.95c0.79-0.53,1.57-0.52,2.35-0.08c0.79,0.44,0.84,1.15,0.71,1.97c-1.11,7.13,2.56,12.14,7.41,16.63
			c0.86,0.8,1.49,0.26,2.22-0.11c7.95-3.96,11.75-10.87,13.46-19.16c1.73-8.4,1.3-16.9,0.7-25.37c-1.01-14.13-3.74-28.1-4.02-42.29
			c-0.34-17.37,2.28-33.99,12.76-48.53c2.23-3.1,4.87-5.82,8.07-7.92c0.99-0.65,1.36-1.5,1.61-2.58
			c3.91-16.97,11.43-32.05,23.7-44.55c9.63-9.81,20.78-17.15,34.47-20c1.66-0.35,2.35-1.13,2.96-2.59
			c7.93-18.76,20.33-33.77,37.74-44.49c13.93-8.58,29.16-12.86,45.45-13.41c13.32-0.45,26.28,1.4,38.64,6.64
			c2.52,1.07,4.95,2.32,7.18,3.89c1.2,0.84,1.7,0.6,2.38-0.62c4.18-7.39,8.78-14.52,13.41-21.63c0.95-1.46,1.94-2.9,3.07-4.22
			c4.94-5.78,11.89-5.08,15.74,1.52c1.87,3.21,2.58,6.77,3.15,10.36c1.28,8.15,2.51,16.31,3.72,24.48c0.17,1.15,0.56,1.6,1.84,1.69
			c14.49,0.99,26.7,6.82,36.43,17.62c1.33,1.47,1.97,0.84,3.04-0.03c27.77-22.69,56.26-44.43,85.56-65.11
			c19.38-13.68,39.07-26.9,59.03-39.71c1.57-1.01,3.13-2.14,4.87-0.4c1.39,1.39,1.18,3.33-0.53,5.51
			c-16.83,21.39-34.25,42.29-52.26,62.69c-22.13,25.07-45.14,49.29-68.97,72.74c-1.4,1.38-1.7,2.34-0.81,4.18
			c2.47,5.12,2.07,10.63,1.59,16.08c-0.4,4.6-0.94,9.19-1.46,13.78c-0.12,1.03,0.05,1.72,1.14,2.11c0.61,0.22,1.18,0.7,1.63,1.19
			c20.31,22.12,43.41,40.92,68.27,57.67c8.93,6.02,17.55,12.5,24.77,20.59c5.56,6.23,10.17,13.04,11.58,21.51
			c1.14,6.83,0.07,13.51-2.25,19.89c-4.82,13.23-12.89,24.16-24.53,32.21c-13.13,9.08-27.64,10.38-42.86,7.01
			c-13.41-2.98-25.42-9.19-37.12-16.13c-8.01-4.75-15.94-9.64-24.29-13.81c-12.71-6.36-26.32-9.31-40.26-11.25
			c-13.34-1.85-26.74-3.49-39.4-8.55c-3.6-1.44-7.12-3.03-10.34-5.17c-1.47-0.98-1.95-0.65-2.45,0.85
			c-3.48,10.45-6.05,21.1-7.26,32.05c-2.39,21.47-0.22,42.5,6.45,63.03c4.48,13.78,10.92,26.6,19.4,38.37
			c2.45,3.41,1.82,5.75-2.18,7.36c-12.37,5-25.07,8.95-38.07,11.97c-22.86,5.31-46.01,7.53-69.47,6.37
			c-2.65-0.13-5.29-0.34-7.92-0.62c-1.15-0.12-1.77,0.33-2.43,1.2c-10.53,14.11-24.58,22.66-41.75,26.15
			c-3.84,0.78-7.7,1.59-11.71,0.92c-1.11-0.19-2.35,0.47-3.55,0.65c-15.61,2.31-29.62-1.24-41.8-11.45
			c-1.97-1.65-2.29-3.26-1.13-4.88c1.19-1.64,2.72-1.79,4.98-0.41c4.42,2.69,9.16,2.92,14.05,1.81
			C154.39,487.4,162.71,478.26,163.57,468.74z M548.46,50.06c-1.25,0.59-2.42,1.32-3.42,2.28c-0.29,0.24-0.55,0.53-0.87,0.72
			c-6.42,3.86-12.51,8.23-18.76,12.35c-0.9,0.6-1.79,1.11-1.45,2.48c0.71,2.87,1.51,5.7,2.96,8.65c3.18-3.78,6.26-7.4,9.3-11.07
			c3.37-4.06,6.69-8.16,10.03-12.24c0.92-0.94,2.09-1.71,2.2-3.21c0.12-0.06,0.37,0.16,0.35-0.18
			C548.68,49.93,548.57,50,548.46,50.06z M79.63,486.55c5.75-3.94,11.94-6.77,18.83-8.1c9.35-1.82,18.84-1.6,28.28-2.09
			c6.14-0.32,12.23-0.97,18.06-3.11c8.96-3.29,15.66-8.8,18.02-18.52c0.09-0.37,0.13-0.83,0.37-1.06c2.1-2,1.37-4.42,1.07-6.78
			c-1.12-9.03-3.46-17.83-5.05-26.77c-0.18-0.99,0.06-2.13-0.91-3.11c-2.43,4.9-5.21,9.47-8.27,13.89
			c-9.33,13.48-22.06,21.28-38.35,23.33c-1.91,0.24-3.89,0.06-5.74,1.08c-6.24,3.44-11.79,7.71-16.31,13.23
			c-4.39,5.35-8.21,11.06-10.31,17.75c-0.24,0.19-0.38,0.4-0.09,0.64C79.25,486.95,79.49,486.68,79.63,486.55z M141.24,234.73
			c-0.94,0.45-1.4,1.37-1.95,2.15c-8.31,11.78-11.23,25.17-11.63,39.28c-0.4,14.08,1.93,27.95,3.38,41.88
			c1.05,10.18,2.12,20.37,0.71,30.6c-1.46,10.55-5.48,19.67-14.65,25.85c-0.25,0.17-0.46,0.37-0.36,0.72
			c4.12,1.67,8.02,1.97,12.46,0.8c10.08-2.65,16.52-9.48,20.8-18.58c3.98-8.46,4.59-17.5,4.06-26.68
			c-0.67-11.81-3.71-23.15-6.77-34.49c-4.22-15.65-7.13-31.48-6.7-47.76c0.12-4.53,0.55-9.06,0.83-13.59
			c0.24-0.15,0.29-0.32,0.06-0.52C141.4,234.51,141.32,234.62,141.24,234.73z M276.87,351.25c-0.6-0.04-1.2-0.13-1.8-0.12
			c-6.96,0.2-13.03-2.04-17.83-7.09c-8.98-9.45-10.95-20.76-8.33-33.15c2.1-9.92,7.12-18.46,12.9-26.61
			c5.74-8.1,12.19-15.68,17.68-23.97c4.93-7.46,8.83-15.36,10.41-24.26c0.74-4.17,0.76-4.17-3.24-5.28c-0.73-0.2-1.46-0.39-2.2-0.57
			c-10.09-2.57-19-7.12-25.57-15.49c-1.22-1.56-2.36-3.18-3.54-4.77c-0.25,0.78-0.19,1.37-0.08,1.95
			c3.83,21.37,2.6,42.42-4.25,63.06c-6.34,19.12-16.81,35.72-31.04,49.94c-1.56,1.56-1.97,2.92-1.36,4.97
			c0.95,3.21,2.11,6.31,3.6,9.31c7.13,14.39,22.82,22.58,38.22,19.74C266.53,357.8,272.21,355.56,276.87,351.25
			c0.02-0.07,0.04-0.13,0.07-0.2C276.91,351.12,276.89,351.19,276.87,351.25z M332,443.5c-0.05-0.14-0.08-0.3-0.15-0.43
			c-10.72-18.8-17.1-38.96-19.16-60.52c-2.27-23.82,0.93-46.79,10.3-68.84c0.57-1.35,0.62-2.14-0.61-3.23
			c-4.25-3.72-7.78-8.06-10.44-13.07c-4.14-7.8-5.42-15.98-3.2-24.6c0.22-0.87,0.46-1.83,1.72-1.71c1.5,0.15,1,1.28,0.97,2.08
			c-0.12,3.34-0.08,6.66,0.7,9.94c2.77,11.6,9.87,19.9,19.88,25.91c11.47,6.89,24.29,9.38,37.29,11.26
			c8.83,1.28,17.71,2.28,26.5,3.86c13.97,2.51,26.68,8.19,38.89,15.19c4.5,2.58,9,5.16,13.53,7.75c0.39-0.85-0.16-1.32-0.38-1.83
			c-4.71-11.06-4.88-22.18-0.46-33.34c4.17-10.54,11.71-18.02,21.46-23.5c4.94-2.78,9.98-5.46,14.11-9.45
			c3.9-3.77,6.88-8.04,7.34-13.68c0.12-1.41-0.31-2.32-1.5-3.22c-11.51-8.67-22.51-17.96-32.83-28.03
			c-1.79-1.75-3.33-3.47-6.12-2.06c-0.5,0.25-1.2,0.14-1.8,0.12c-9.64-0.34-16.75-5.1-22.08-12.8c-3.96-5.72-5.42-12.24-5.64-19.1
			c-0.02-0.59,0.4-1.62-0.46-1.69c-0.96-0.07-0.73,0.88-0.64,1.55c0.19,1.36-0.66,1.89-1.78,2.2c-2.27,0.61-4.4,0.01-6.35-1.03
			c-14.85-7.82-24.42-19.55-26.84-36.51c-0.11-0.77-0.17-1.41-0.93-1.9c-4.79-3.06-9.95-5.18-15.6-5.78
			c-8.64-0.91-17.24,0.08-25.81,1.13c-3.07,0.38-6.11,1.03-9.17,1.56c-0.74,0.13-1.57,0.42-1.99-0.5c-0.38-0.85,0.3-1.27,0.91-1.55
			c0.91-0.41,0.99-1.25,1.27-2.02c3.96-11.37,8.63-22.43,14.34-33.05c1.01-1.87,1.95-3.78,3.57-5.22c3.13-2.76,7.05-2.24,9.38,1.2
			c0.99,1.47,1.64,3.09,2.03,4.78c1.97,8.5,2.95,17.15,3.67,25.83c0.26,3.11,0.08,3.13,3.31,3.28c2.89,0.14,2.84,0.14,2.58-2.78
			c-1.3-14.4-2.71-28.8-4.94-43.09c-0.81-5.22-1.13-10.55-2.69-15.63c-0.63-2.06-1.23-4.57-3.73-4.98c-2.45-0.4-3.69,1.8-4.86,3.52
			c-3.44,5.07-6.85,10.17-10.13,15.35c-10.66,16.84-19.47,34.69-28.74,52.3c-0.59,1.13-0.71,3.39-2.61,2.84
			c-2.13-0.62-0.19-2.46-0.5-3.8c-2.15-0.33-4.34-0.3-6.5-0.09c-5.95,0.58-11.25,2.82-15,7.55c-8.59,10.83-3.53,27.88,9.71,33.24
			c3.65,1.48,7.52,2.26,11.3,3.31c9.23,2.58,15.94,7.87,18.63,17.42c1.41,5.02,1.52,10.15,1.09,15.32
			c-0.74,8.84-3.22,17.21-6.81,25.28c-0.74,1.66-1.74,3.21-3.27,4.29c-1.01,0.71-2.12,0.78-3.16,0.01c-1.08-0.8-0.77-1.75-0.25-2.71
			c0.54-2.08,1.96-3.89,1.71-6.23c-0.7-6.5-4.07-11.25-9.41-14.75c-5.14-3.38-11-4.89-16.87-6.35c-1.52-0.38-1.68,0.41-1.45,1.58
			c0.58,2.89,0.05,5.74-0.39,8.56c-1.25,7.9-4.67,14.95-8.93,21.63c-4.73,7.43-10.5,14.07-15.73,21.12
			c-5.38,7.24-10.43,14.69-13,23.48c-2.78,9.51-2.32,18.72,3.06,27.27c6.97,11.09,19.82,11.11,27.2,5.6
			c1.5-1.55,3.06-3.05,4.49-4.66c0.73-0.82,1.43-1.39,2.5-0.82c1.16,0.61,0.84,1.69,0.58,2.6c-0.53,1.91-1.66,3.52-2.83,5.09
			c-4.73,8.28-11.38,14.44-20.17,18.22c-7.27,3.13-14.82,4.01-22.64,2.81c-0.94-0.14-2.05-0.69-2.8,0.65
			c-1.5,2.7-2.35,5.48-2.14,8.64c0.31,4.6,2.11,8.68,4.38,12.51c8.92,14.99,11.86,30.87,7.62,47.93
			c-2.33,9.4-6.55,17.84-12.66,25.33c-1.73,2.12-3.46,2.29-4.94,0.62c-1.14-1.29-0.44-2.58,0.03-3.82
			c2.66-7.08,3.31-14.33,1.89-22.14c-0.19,0.58-0.31,0.78-0.31,0.99c0.06,10.42-1.88,20.42-6.28,29.91
			c-0.97,2.1-0.68,2.57,1.62,2.57c6.35-0.01,12.7,0.26,19.05,0.17c8.26-0.13,16.49-0.61,24.68-1.6c13.58-1.63,26.95-4.41,40.11-8.17
			c6.17-1.76,12.26-3.77,18.27-6.01c0.58-0.22,1.99-0.19,0.99-1.54C335.24,448.58,334.06,445.75,332,443.5z M217.01,318.36
			c0.14-0.06,0.3-0.09,0.41-0.18c0.23-0.19,0.44-0.41,0.65-0.63c22.51-24.28,33.28-53.05,32.84-86.09
			c-0.14-10.29-2.58-20.26-4.29-30.34c-1.47-8.66-2.16-17.37,0.77-25.86c3.56-10.33,10.45-18.52,17.77-26.34
			c2.7-2.88,5.99-5.12,9.42-7.08c14.34-8.19,29.8-8.87,45.65-6.66c1.5,0.21,2.24,0.11,2.94-1.36c2.43-5.05,4.99-10.04,7.58-15
			c2.06-3.96,2.1-3.89-2.13-5.39c-14.28-5.04-28.8-8.2-44.11-6.62c-27.53,2.85-49.3,15.36-64.77,38.38
			c-10.02,14.92-14.96,31.53-15.1,49.49c-0.07,9.3,1.77,18.36,4.25,27.3c3.61,12.99,8.38,25.62,11.82,38.66
			c5.09,19.31,4.74,38.22-3.61,56.65C216.96,317.66,216.74,317.98,217.01,318.36z M202.07,164.14c-1.68,0.64-2.82,1.01-3.91,1.5
			c-17.74,7.95-31.11,20.63-40.05,37.81c-11.1,21.35-12.62,44.15-9.26,67.52c1.53,10.59,4.65,20.84,7.35,31.17
			c3.62,13.84,6.48,27.77,4.64,42.2c-1.48,11.63-5.79,21.86-14.62,29.97c-10.58,9.7-24.27,11.53-36.29,4.58
			c-3.83-2.21-7.02-5.2-9.87-8.86c-0.29,1-0.03,1.63,0.13,2.28c3.12,12.8,14.64,22.52,27.79,23.03
			c15.64,0.61,28.11-5.98,37.64-18.03c9.74-12.32,13.52-26.92,14.78-42.29c0.83-10.05,0.31-20.15,1.01-30.21
			c0.57-8.2,1.79-16.28,5.02-23.91c4.59-10.83,11.35-19.71,22.7-24.11c2.25-0.87,2.41-1.76,1.78-3.79
			c-3.3-10.55-6.98-20.99-9.83-31.68c-3.55-13.32-5.03-26.77-2.93-40.5C198.97,175.36,200.21,169.99,202.07,164.14z M524.77,351.46
			c-1.12-0.24-2.21-0.47-3.29-0.72c-9.93-2.29-17.39-7.87-22.36-16.77c-0.55-0.99-1.02-1.98,0.19-2.77
			c1.23-0.81,1.73,0.31,2.35,1.03c5.89,6.77,13.23,10.98,22.09,12.46c6.85,1.14,7.34,0.88,10.97-5c0.32-0.52,0.66-1.02,0.94-1.55
			c2.82-5.34,6.11-10.47,6.91-16.66c1.19-9.16-2.59-16.56-8.18-23.28c-10.5-12.6-24.69-20.63-37.64-30.18
			c-0.92-0.68-1.31-0.39-1.46,0.67c-1.27,8.77-6.22,15.12-13.35,19.95c-4.83,3.27-9.89,6.2-14.63,9.59
			c-17.74,12.67-21.07,34.71-8.01,52.11c0.54,0.72,1.21,1.46,1.44,2.29c0.38,1.41,1.33,2.09,2.53,2.64
			c6.6,3.07,13.37,5.69,20.52,7.17c14.41,3,27.72,1.07,39.23-8.84C523.68,353.02,524.58,352.62,524.77,351.46z M245.46,445.17
			c0.99-0.75,1.2-1.57,1.53-2.3c7.78-16.99,6.6-33.51-2.62-49.6c-2.45-4.27-5.01-8.49-6.41-13.26c-1.5-5.11-1.64-10.2,0.78-15.06
			c0.76-1.54,0.65-1.98-0.92-2.75c-12.6-6.18-20.81-15.87-23.35-29.92c-0.27-1.48-0.67-1.62-1.77-0.65c-3.42,3-7.07,5.71-10.81,8.3
			c-1.44,0.99-2.85,1.14-4.09-0.18c-1.3-1.36-1.45-2.95-0.41-4.57c0.28-0.44,0.68-0.81,1.04-1.2c5.79-6.34,10.16-13.55,13.39-21.49
			c6.46-15.9,6.02-32.07,2.14-48.43c-0.4-1.67-1.2-1.3-2.24-0.9c-8.1,3.12-13.49,9.06-17.13,16.71c-4.61,9.7-6.05,20.09-6.42,30.69
			c-0.3,8.78-0.16,17.58-0.92,26.34c-0.24,2.71-1.12,5.49-0.76,8.11c2.23,16.12,8.31,30.6,19.09,42.97
			c5.17,5.94,11.41,10.61,17.63,15.33c5.33,4.04,10.46,8.3,14.29,13.88C243.2,425.52,245.83,434.76,245.46,445.17z M158.5,393.69
			c-0.24,0.01-0.41-0.03-0.53,0.04c-0.86,0.49-1.68,1.02-2.55,1.49c-14.72,8.03-29.62,9.76-44.77,1.18
			c-1.07-0.61-1.37-0.24-1.84,0.64c-1.93,3.6-4.92,6.1-8.5,7.95c-4.03,2.08-8.33,3.13-12.82,3.6c-6.74,0.72-13.48,0.13-20.23,0.23
			c-23.77,0.37-41.4,19.46-39.66,43.11c0.21,2.8,0.53,5.64,1.89,8.51c0.45-1.63,0.78-2.94,1.18-4.24
			c3.95-12.79,14.4-19.97,27.58-18.89c6.42,0.52,12.43,2.6,18.28,5.15c10.88,4.75,22.06,7.48,34.04,5.71
			c11.41-1.69,21.29-6.31,29.14-14.89c7.23-7.9,11.94-17.27,15.7-27.18C156.93,402.09,158.58,398.12,158.5,393.69z M183.91,356.07
			c-0.25,0.75-0.36,1.03-0.44,1.31c-3.64,11.79-9.4,22.3-18.52,30.78c-0.95,0.88-1.04,1.99-1.24,3.07c-1,5.47-0.7,10.99-0.3,16.47
			c0.63,8.56,3.04,16.82,4.95,25.15c2.52,11.04,4.64,22.12,2.95,33.5c-1.23,8.27-4.16,15.78-10.29,21.78
			c-4.14,4.06-9.02,6.8-14.67,8.39c0.92,0.8,1.92,0.94,2.86,1.15c4.97,1.13,9.98,1.58,15.1,1.09c19.28-1.84,36.12-19.48,37.12-38.82
			c0.38-7.39-1.18-14.44-3.04-21.48c-2.07-7.84-4.32-15.65-3.78-23.88c0.45-6.95,2.16-13.5,7.22-18.64
			c1.33-1.35,1.32-2.04,0.09-3.42c-7-7.84-12.15-16.78-15.34-26.81C185.61,362.7,184.88,359.61,183.91,356.07z M324.43,244.75
			c0.24-0.42,0.44-0.65,0.51-0.92c1.57-6.04,2.54-12.16,2.06-18.43c-0.84-10.94-5.31-16.49-15.81-19.58
			c-3.41-1-6.88-1.83-10.25-2.96c-12.81-4.31-20.4-17.37-18.09-31c2.06-12.21,13.73-21.45,26.64-21.31
			c2.12,0.02,4.53,1.94,6.15,0.31c1.42-1.44,1.74-3.96,2.57-5.99c1.71-4.2,1.72-4.25-2.83-4.56c-9.26-0.63-18.5-0.88-27.4,2.46
			c-9.3,3.49-17.52,8.32-23.23,16.93c-1.88,2.82-3.99,5.49-5.43,8.58c-9.99,21.36,0.94,47.27,23.42,53.87
			c5.45,1.6,10.97,2.91,16.44,4.42C309.79,229.5,319.24,234.04,324.43,244.75z M190.93,493.88c1.06,0.21,1.72-0.23,2.4-0.5
			c12.93-5.01,23.17-13.35,30.5-25.12c7.94-12.76,10.38-26.69,9.36-41.61c-0.37-5.33-2.58-8.82-6.1-12.2
			c-4.77-4.58-10.07-8.5-15.21-12.63c-4.31-3.46-4.8-3.38-7.68,1.53c-0.42,0.72-0.79,1.47-1.13,2.23c-2.59,5.93-2.4,12.1-1.46,18.31
			c1.03,6.83,3.13,13.42,4.61,20.15c3.33,15.23,1.3,29.35-8.2,42.07C195.95,488.89,193.48,491.31,190.93,493.88z M430.42,134.41
			c-5.92,4.66-11.42,9.01-16.96,13.33c-0.92,0.72-0.68,1.62-0.62,2.49c0.52,8.11,1.95,16.07,4.32,23.84
			c1.16,3.81,3.01,7.26,6.04,9.98c0.76,0.68,1.31,1.1,2.25,0.18c4.75-4.67,9.54-9.3,14.34-13.92c0.7-0.67,0.88-1.15,0.27-2.09
			C433.5,158.13,430.06,147.1,430.42,134.41z M452.64,117.54c-4.08,3.09-7.67,5.73-11.16,8.48c-2.31,1.82-5.58,3.02-6.65,5.63
			c-1.07,2.6-0.01,5.82,0.37,8.75c1.1,8.47,4.01,16.29,8.59,23.5c0.7,1.1,1.16,1.29,2.16,0.27c4.93-5.04,9.91-10.03,14.9-15.01
			c0.74-0.73,0.78-1.25,0.14-2.1c-1.61-2.11-2.86-4.46-4.05-6.84C453.49,133.3,451.96,125.97,452.64,117.54z M376.37,128.24
			c0,0.01,0.01,0.16,0.03,0.31c0.87,8.51,1.97,16.99,2.46,25.54c0.07,1.13,0.64,1.77,1.67,2.17c2.84,1.11,5.46,2.65,7.87,4.48
			c1.25,0.95,2.02,0.74,3.07-0.26c5.27-5.01,10.78-9.75,16.46-14.29c1.17-0.94,1.17-1.55,0.27-2.7c-4.31-5.53-9.98-9.24-16.19-12.18
			c-4.44-2.1-9-4.02-14.04-4.21C377.23,127.07,376.14,126.55,376.37,128.24z M409.78,150.91c-7.03,5.37-13.63,10.43-20.26,15.44
			c-0.9,0.68-0.46,1.33-0.21,1.98c3.93,10.28,10.42,18.55,19.63,24.6c4.33,2.85,4.38,2.78,8.19-0.88c0.98-0.94,2.45-1.76,2.79-2.9
			c0.41-1.42-1.77-1.74-2.35-2.94c-0.19-0.4-0.57-0.7-0.83-1.07c-3.55-4.92-4.96-10.65-6.1-16.46
			C409.51,162.95,409.18,157.16,409.78,150.91z M474.3,101.78c-0.51,0.16-0.68,0.17-0.79,0.25c-3.6,2.64-7.2,5.3-10.8,7.93
			c-6.31,4.62-6.45,4.63-5.61,12.33c0.8,7.33,3.03,14.19,7.6,20.15c0.79,1.03,1.29,1.42,2.38,0.24c4.63-5,9.35-9.92,14.05-14.84
			c0.6-0.63,0.81-1.13,0.25-1.95C476.53,118.66,473.82,110.77,474.3,101.78z M498.41,84.02c-6.69,4.82-13.01,9.37-19.34,13.9
			c-0.76,0.54-0.74,1.26-0.72,2.01c0.27,7.68,2.4,14.76,6.74,21.14c0.72,1.06,1.23,1.31,2.21,0.22
			c5.16-5.75,10.38-11.45,15.58-17.17c0.46-0.5,0.92-0.91,0.46-1.75C500.27,96.84,498.88,90.83,498.41,84.02z M335.22,156.57
			c8.27-2.57,16.09-4.11,24.15-4.2c1.38-0.01,1.37-0.78,1.29-1.78c-0.36-4.37-0.52-8.77-1.09-13.11c-0.63-4.79-1.03-9.63-2.53-14.27
			c-0.3-0.93-0.54-2.02-1.67-2.24c-1.29-0.25-1.83,0.85-2.42,1.71c-2.73,3.93-4.69,8.28-6.85,12.53
			C342.59,142.14,339.04,149.07,335.22,156.57z M438.67,180.64c-0.42,0.25-0.7,0.35-0.9,0.54c-4.38,4.18-8.74,8.37-13.12,12.55
			c-0.67,0.64-0.89,1.36-0.81,2.24c0.7,8.07,2.77,15.65,8.09,22c2.54,3.03,5.73,5.18,9.63,6.82c-0.14-0.58-0.14-0.82-0.24-0.99
			c-3.5-5.67-4.28-11.87-3.5-18.35c0.53-4.43,1.19-8.84,1.7-13.27C439.94,188.35,439.85,184.53,438.67,180.64z M519.73,69.33
			c-0.23,0.14-0.5,0.28-0.75,0.45c-5.35,3.7-10.69,7.41-16.04,11.1c-0.72,0.5-0.95,1.1-0.76,1.94c1.11,4.95,2.5,9.8,4.82,14.36
			c0.62,1.23,1.1,1.14,1.92,0.18c4.44-5.15,8.91-10.28,13.38-15.4c0.52-0.6,0.89-1.18,0.54-2.03c-1.25-3.03-1.94-6.19-2.29-9.44
			C520.51,70.02,520.56,69.36,519.73,69.33z"/>
		<path class="st3" d="M319.37,259.83c-0.52,0.96-0.83,1.91,0.25,2.71c1.04,0.77,2.15,0.71,3.16-0.01c1.53-1.08,2.53-2.63,3.27-4.29
			c3.59-8.06,6.07-16.43,6.81-25.28c0.43-5.17,0.32-10.3-1.09-15.32c-2.69-9.55-9.4-14.84-18.63-17.42
			c-3.78-1.06-7.65-1.84-11.3-3.31c-13.24-5.35-18.3-22.4-9.71-33.24c3.75-4.73,9.05-6.97,15-7.55c2.16-0.21,4.36-0.24,6.5,0.09
			c0.31,1.34-1.63,3.19,0.5,3.8c1.9,0.55,2.01-1.71,2.61-2.84c9.27-17.6,18.09-35.46,28.74-52.3c3.28-5.18,6.69-10.28,10.13-15.35
			c1.17-1.72,2.41-3.93,4.86-3.52c2.51,0.41,3.1,2.92,3.73,4.98c1.57,5.08,1.88,10.41,2.69,15.63c2.23,14.29,3.64,28.69,4.94,43.09
			c0.26,2.92,0.31,2.91-2.58,2.78c-3.24-0.15-3.06-0.17-3.31-3.28c-0.72-8.68-1.69-17.33-3.67-25.83c-0.39-1.68-1.04-3.31-2.03-4.78
			c-2.33-3.45-6.25-3.97-9.38-1.2c-1.63,1.43-2.57,3.35-3.57,5.22c-5.71,10.61-10.38,21.68-14.34,33.05
			c-0.27,0.78-0.36,1.61-1.27,2.02c-0.61,0.28-1.3,0.7-0.91,1.55c0.42,0.92,1.25,0.63,1.99,0.5c3.06-0.53,6.1-1.18,9.17-1.56
			c8.57-1.05,17.17-2.04,25.81-1.13c5.65,0.6,10.81,2.72,15.6,5.78c0.76,0.49,0.82,1.13,0.93,1.9
			c2.42,16.96,11.99,28.69,26.84,36.51c1.96,1.03,4.08,1.64,6.35,1.03c1.13-0.3,1.97-0.84,1.78-2.2c-0.09-0.67-0.32-1.63,0.64-1.55
			c0.87,0.07,0.44,1.1,0.46,1.69c0.21,6.86,1.68,13.38,5.64,19.1c5.33,7.71,12.44,12.47,22.08,12.8c0.6,0.02,1.31,0.13,1.8-0.12
			c2.79-1.4,4.33,0.32,6.12,2.06c10.32,10.07,21.31,19.36,32.83,28.03c1.19,0.9,1.62,1.81,1.5,3.22c-0.46,5.64-3.44,9.91-7.34,13.68
			c-4.13,3.99-9.17,6.67-14.11,9.45c-9.75,5.48-17.29,12.96-21.46,23.5c-4.42,11.16-4.25,22.29,0.46,33.34
			c0.22,0.51,0.77,0.99,0.38,1.83c-4.53-2.59-9.03-5.17-13.53-7.75c-12.2-7-24.91-12.68-38.89-15.19
			c-8.79-1.58-17.67-2.58-26.5-3.86c-13-1.88-25.82-4.37-37.29-11.26c-10.01-6.01-17.11-14.31-19.88-25.91
			c-0.78-3.28-0.83-6.6-0.7-9.94c0.03-0.8,0.53-1.94-0.97-2.08c-1.27-0.12-1.5,0.84-1.72,1.71c-2.22,8.62-0.94,16.8,3.2,24.6
			c2.66,5.01,6.19,9.35,10.44,13.07c1.24,1.08,1.19,1.88,0.61,3.23c-9.37,22.05-12.57,45.02-10.3,68.84
			c2.06,21.56,8.43,41.72,19.16,60.52c0.07,0.13,0.1,0.28,0.15,0.43c-0.28,0.72-0.89,0.97-1.57,1.15
			c-5.7,1.53-11.52,2.45-17.37,3.02c-5.93,0.58-11.9,0.77-17.87,0.09c-5.59-0.64-11.05-1.61-16.05-4.36
			c-4.82-2.65-7.1-7.25-6.04-12.49c1.31-6.47,1-12.89-0.19-19.33c-1.42-7.72-3.71-15.25-4.99-23.01c-1.22-7.4,1.23-13.86,7.42-17.63
			c2.55-1.55,4.9-3.29,6.92-5.43c4.69-5,7.27-11.07,8.5-17.73c0.23-1.27,0.71-2.68-0.45-3.84c1.17-1.57,2.3-3.18,2.83-5.09
			c0.25-0.92,0.58-1.99-0.58-2.6c-1.08-0.57-1.77,0-2.5,0.82c-1.43,1.61-2.98,3.12-4.49,4.66c-0.82,0.09-1.65,0.14-2.47,0.29
			c-5.1,0.98-9.39-0.34-12.83-4.33c-4.21-4.88-5.82-10.75-6.12-16.97c-0.37-7.55,2.25-14.4,5.72-20.96
			c4.97-9.38,11.78-17.41,19.13-24.92c6.16-6.29,10.57-13.57,14.17-21.48c0.63-1.38,1.42-2.65,2.3-3.89
			c1.23-1.73,2.6-1.79,4.31-0.82c2.28,1.3,4.01,3.18,5.77,5.07C317.22,255.55,317.75,258.02,319.37,259.83z M366.11,295.83
			c-0.6-1.91-1.29-4.54-2.27-7.06c-0.7-1.81-0.28-3.07,1.16-4.16c1.94-1.45,3.89-2.88,5.83-4.33c1.34-1,1.99-2.27,1.38-3.95
			c-0.58-1.6-1.84-2.08-3.42-2.06c-1.89,0.02-3.79,0.01-5.68,0c-3.39-0.02-4.26-0.69-5.21-3.85c-0.57-1.88-1.19-3.75-1.8-5.61
			c-0.51-1.54-1.53-2.38-3.21-2.34c-1.65,0.04-2.69,0.84-3.19,2.4c-0.67,2.09-1.41,4.16-2.02,6.26c-0.62,2.13-2,3.12-4.16,3.14
			c-2.12,0.02-4.24,0.08-6.36,0c-1.82-0.06-3.15,0.59-3.69,2.34c-0.53,1.71,0.42,2.91,1.72,3.86c1.71,1.25,3.45,2.46,5.18,3.69
			c1.66,1.18,2.4,2.59,1.55,4.68c-0.79,1.96-1.33,4.02-1.99,6.03c-0.54,1.64-0.53,3.15,1.04,4.27c1.53,1.09,3.01,0.72,4.41-0.28
			c1.78-1.28,3.58-2.54,5.31-3.9c1.47-1.15,2.81-1.2,4.32-0.06c1.99,1.5,4.01,2.99,6.12,4.31
			C363.53,300.7,366.09,299.29,366.11,295.83z M418.12,220.96c0.09-2.32-1.69-3.81-3.88-3.3c-1.67,0.39-2.99,1.41-4.23,2.55
			c-1.4,1.29-2.88,2.43-4.65,3.19c-7.37,3.15-15.66,1.28-21.8-4.95c-0.72-0.73-1.33-1.89-2.59-0.94c-1.22,0.92-0.86,2.14-0.03,2.96
			c2.97,2.97,2.64,5.75,0.07,8.81c-0.71,0.85-2.12,2.55-0.46,3.5c1.86,1.07,2.04-1.21,2.65-2.21c2.28-3.73,2.32-3.79,5.96-1.65
			c0.13,0.08,0.25,0.18,0.39,0.23c1.31,0.43,1.61,1.18,1.28,2.58c-0.29,1.24-1.19,3.2,0.89,3.62c2.02,0.41,1.72-1.74,2.01-2.89
			c0.3-1.21,0.74-1.31,1.86-1.21c3.07,0.27,6.04,0.48,6.08,4.65c0,0.07,0.08,0.13,0.1,0.2c0.29,0.88,0.94,1.16,1.78,0.98
			c0.93-0.2,0.84-0.96,0.73-1.64c-0.11-0.67-0.25-1.35-0.5-1.97c-0.59-1.5-0.14-2.25,1.49-2.37c0.59-0.04,1.23-0.21,1.72-0.52
			c2.15-1.37,3.95-1.23,5.58,0.9c0.72,0.94,1.85,1.21,2.74,0.19c0.91-1.04,0.66-2.11-0.44-2.92c-1.72-1.26-0.66-2,0.44-2.84
			c1.1-0.83,1.45,0.31,2.02,0.73c1.08,0.8,2.15,2.18,3.45,0.63c1.2-1.44-0.21-2.26-1.19-3.08
			C418.53,223.33,417.28,222.54,418.12,220.96z"/>
		<path class="st4" d="M217.01,318.36c-0.28-0.38-0.05-0.7,0.11-1.05c8.35-18.43,8.7-37.34,3.61-56.65
			c-3.44-13.04-8.21-25.67-11.82-38.66c-2.48-8.94-4.32-18-4.25-27.3c0.14-17.96,5.08-34.57,15.1-49.49
			c15.47-23.02,37.24-35.53,64.77-38.38c15.31-1.58,29.83,1.58,44.11,6.62c4.23,1.49,4.19,1.43,2.13,5.39
			c-2.59,4.97-5.15,9.95-7.58,15c-0.71,1.47-1.44,1.57-2.94,1.36c-15.85-2.21-31.31-1.53-45.65,6.66c-3.44,1.96-6.73,4.2-9.42,7.08
			c-7.32,7.82-14.21,16.01-17.77,26.34c-2.93,8.49-2.24,17.2-0.77,25.86c1.71,10.07,4.16,20.04,4.29,30.34
			c0.44,33.03-10.33,61.8-32.84,86.09c-0.21,0.22-0.42,0.44-0.65,0.63C217.31,318.28,217.15,318.3,217.01,318.36z"/>
		<path class="st1" d="M202.07,164.14c-1.86,5.85-3.09,11.22-3.93,16.68c-2.1,13.73-0.61,27.18,2.93,40.5
			c2.85,10.69,6.54,21.13,9.83,31.68c0.63,2.03,0.47,2.92-1.78,3.79c-11.35,4.4-18.12,13.28-22.7,24.11
			c-3.23,7.63-4.45,15.71-5.02,23.91c-0.7,10.06-0.18,20.16-1.01,30.21c-1.27,15.37-5.04,29.96-14.78,42.29
			c-9.53,12.05-21.99,18.64-37.64,18.03c-13.16-0.52-24.68-10.24-27.79-23.03c-0.16-0.65-0.41-1.28-0.13-2.28
			c2.85,3.66,6.05,6.64,9.87,8.86c12.02,6.95,25.72,5.13,36.29-4.58c8.83-8.1,13.14-18.33,14.62-29.97
			c1.84-14.43-1.02-28.36-4.64-42.2c-2.7-10.33-5.82-20.57-7.35-31.17c-3.37-23.37-1.85-46.17,9.26-67.52
			c8.94-17.18,22.31-29.86,40.05-37.81C199.25,165.15,200.39,164.78,202.07,164.14z M164.58,234.31c-0.62,0-1.08,0.05-1.53-0.01
			c-1.83-0.25-3.38,0.11-4.04,2.05c-0.66,1.91,0.39,3.14,1.85,4.17c1.61,1.13,3.16,2.35,4.78,3.46c1.86,1.28,2.56,2.79,1.61,5.05
			c-0.82,1.95-1.28,4.04-1.97,6.04c-0.57,1.65-0.22,3.02,1.17,4.03c1.32,0.97,2.7,0.83,4.01-0.12c1.83-1.34,3.74-2.58,5.49-4.03
			c1.76-1.46,3.31-1.08,4.93,0.11c1.71,1.25,3.44,2.48,5.14,3.74c1.26,0.94,2.53,1.29,4.01,0.48c1.5-0.83,1.41-2.22,1.31-3.59
			c-0.17-2.45-1.34-4.63-2.04-6.94c-0.64-2.11,0.01-3.51,1.67-4.69c1.66-1.18,3.25-2.49,4.97-3.58c1.61-1.02,2.06-2.43,1.65-4.1
			c-0.42-1.68-1.86-2-3.39-2.06c-2.57-0.1-5.13-0.28-7.7-0.37c-1.31-0.05-2.11-0.61-2.54-1.86c-0.8-2.36-1.68-4.7-2.47-7.06
			c-0.54-1.62-1.46-2.59-3.28-2.54c-1.82,0.05-2.71,1.11-3.21,2.69c-0.64,2.02-1.26,4.04-1.94,6.04c-0.46,1.34-1.17,2.55-2.76,2.67
			C168.33,234.05,166.4,234.58,164.58,234.31z"/>
		<path class="st0" d="M524.77,351.46c-0.19,1.16-1.09,1.56-1.74,2.12c-11.5,9.91-24.82,11.84-39.23,8.84
			c-7.15-1.49-13.92-4.1-20.52-7.17c-1.19-0.56-2.14-1.23-2.53-2.64c-0.23-0.83-0.89-1.57-1.44-2.29
			c-13.06-17.4-9.73-39.44,8.01-52.11c4.74-3.38,9.8-6.32,14.63-9.59c7.13-4.83,12.08-11.18,13.35-19.95
			c0.15-1.06,0.53-1.35,1.46-0.67c12.95,9.55,27.14,17.58,37.64,30.18c5.59,6.72,9.38,14.12,8.18,23.28
			c-0.81,6.19-4.1,11.32-6.91,16.66c-0.28,0.53-0.63,1.04-0.94,1.55c-3.63,5.88-4.12,6.14-10.97,5c-8.86-1.47-16.2-5.69-22.09-12.46
			c-0.62-0.71-1.12-1.84-2.35-1.03c-1.21,0.8-0.74,1.78-0.19,2.77c4.97,8.91,12.44,14.48,22.36,16.77
			C522.56,350.99,523.65,351.22,524.77,351.46z M518.91,311.04c0.1,4.9,1.77,9.78,5.9,13.64c3.13,2.93,5.69,2.73,8.1-0.83
			c3.23-4.76,3.67-9.87,1.26-15.1c-1.77-3.86-5.22-6.02-8.74-5.76c-2.62,0.2-2.62,0.2-2.02-2.45c0.07-0.3,0.11-0.6,0.2-0.89
			c0.21-0.69,0.38-1.41-0.49-1.72c-0.9-0.31-1.19,0.46-1.45,1.07C520.12,302.64,518.99,306.4,518.91,311.04z"/>
		<path class="st0" d="M245.46,445.17c0.37-10.41-2.27-19.65-7.98-27.98c-3.83-5.58-8.96-9.84-14.29-13.88
			c-6.22-4.72-12.46-9.4-17.63-15.33c-10.77-12.37-16.86-26.85-19.09-42.97c-0.36-2.62,0.52-5.4,0.76-8.11
			c0.76-8.76,0.62-17.56,0.92-26.34c0.36-10.59,1.8-20.99,6.42-30.69c3.64-7.66,9.03-13.59,17.13-16.71c1.04-0.4,1.85-0.77,2.24,0.9
			c3.88,16.35,4.32,32.53-2.14,48.43c-3.23,7.94-7.6,15.15-13.39,21.49c-0.36,0.39-0.76,0.76-1.04,1.2
			c-1.04,1.61-0.89,3.2,0.41,4.57c1.25,1.31,2.66,1.17,4.09,0.18c3.74-2.59,7.39-5.29,10.81-8.3c1.1-0.96,1.5-0.83,1.77,0.65
			c2.54,14.05,10.75,23.74,23.35,29.92c1.57,0.77,1.69,1.22,0.92,2.75c-2.42,4.86-2.27,9.95-0.78,15.06
			c1.4,4.77,3.96,8.99,6.41,13.26c9.21,16.09,10.4,32.61,2.62,49.6C246.66,443.59,246.46,444.42,245.46,445.17z"/>
		<path class="st0" d="M158.5,393.69c0.09,4.43-1.57,8.4-3.09,12.41c-3.76,9.92-8.47,19.28-15.7,27.18
			c-7.85,8.59-17.73,13.2-29.14,14.89c-11.98,1.77-23.16-0.96-34.04-5.71c-5.85-2.55-11.86-4.62-18.28-5.15
			c-13.18-1.08-23.62,6.1-27.58,18.89c-0.4,1.29-0.73,2.61-1.18,4.24c-1.36-2.87-1.68-5.71-1.89-8.51
			c-1.73-23.65,15.89-42.74,39.66-43.11c6.74-0.11,13.49,0.48,20.23-0.23c4.49-0.48,8.79-1.52,12.82-3.6
			c3.58-1.85,6.56-4.36,8.5-7.95c0.47-0.88,0.77-1.24,1.84-0.64c15.15,8.58,30.05,6.86,44.77-1.18c0.86-0.47,1.69-1.01,2.55-1.49
			C158.09,393.67,158.26,393.71,158.5,393.69z"/>
		<path class="st4" d="M183.91,356.07c0.97,3.54,1.7,6.63,2.66,9.64c3.19,10.03,8.34,18.97,15.34,26.81
			c1.23,1.38,1.24,2.07-0.09,3.42c-5.06,5.14-6.77,11.69-7.22,18.64c-0.54,8.23,1.71,16.05,3.78,23.88
			c1.86,7.04,3.42,14.09,3.04,21.48c-1,19.34-17.84,36.98-37.12,38.82c-5.12,0.49-10.13,0.04-15.1-1.09
			c-0.94-0.21-1.94-0.35-2.86-1.15c5.66-1.59,10.53-4.34,14.67-8.39c6.13-6,9.05-13.51,10.29-21.78c1.7-11.39-0.42-22.47-2.95-33.5
			c-1.91-8.33-4.31-16.59-4.95-25.15c-0.4-5.48-0.7-11,0.3-16.47c0.2-1.09,0.29-2.19,1.24-3.07c9.11-8.48,14.88-18.99,18.52-30.78
			C183.55,357.1,183.65,356.82,183.91,356.07z"/>
		<path class="st5" d="M290.3,343.94c1.16,1.16,0.68,2.57,0.45,3.84c-1.23,6.67-3.8,12.74-8.5,17.73c-2.02,2.15-4.37,3.88-6.92,5.43
			c-6.19,3.76-8.64,10.23-7.42,17.63c1.28,7.76,3.57,15.29,4.99,23.01c1.18,6.43,1.49,12.86,0.19,19.33
			c-1.06,5.24,1.22,9.84,6.04,12.49c5,2.75,10.46,3.72,16.05,4.36c5.97,0.69,11.93,0.49,17.87-0.09c5.85-0.57,11.67-1.49,17.37-3.02
			c0.68-0.18,1.3-0.43,1.57-1.15c2.06,2.25,3.24,5.08,5.03,7.51c1,1.36-0.41,1.33-0.99,1.54c-6.01,2.24-12.1,4.25-18.27,6.01
			c-13.16,3.75-26.53,6.54-40.11,8.17c-8.19,0.98-16.42,1.47-24.68,1.6c-6.36,0.1-12.7-0.17-19.05-0.17c-2.3,0-2.59-0.47-1.62-2.57
			c4.4-9.49,6.33-19.49,6.28-29.91c0-0.2,0.12-0.41,0.31-0.99c1.41,7.81,0.77,15.05-1.89,22.14c-0.47,1.25-1.18,2.53-0.03,3.82
			c1.48,1.67,3.21,1.5,4.94-0.62c6.12-7.49,10.33-15.94,12.66-25.33c4.24-17.07,1.29-32.94-7.62-47.93
			c-2.27-3.83-4.08-7.91-4.38-12.51c-0.21-3.16,0.64-5.94,2.14-8.64c0.75-1.35,1.85-0.8,2.8-0.65c7.82,1.2,15.37,0.32,22.64-2.81
			C278.92,358.38,285.57,352.22,290.3,343.94z"/>
		<path class="st1" d="M276.86,351.25c-4.65,4.31-10.34,6.55-16.42,7.67c-15.41,2.84-31.09-5.35-38.22-19.74
			c-1.49-3-2.65-6.1-3.6-9.31c-0.61-2.05-0.2-3.41,1.36-4.97c14.23-14.22,24.7-30.82,31.04-49.94c6.85-20.64,8.07-41.69,4.25-63.06
			c-0.1-0.58-0.16-1.18,0.08-1.95c1.18,1.59,2.32,3.21,3.54,4.77c6.58,8.37,15.48,12.92,25.57,15.49c0.73,0.19,1.47,0.37,2.2,0.57
			c4,1.11,3.98,1.11,3.24,5.28c-1.58,8.9-5.48,16.8-10.41,24.26c-5.48,8.29-11.94,15.87-17.68,23.97
			c-5.78,8.15-10.8,16.69-12.9,26.61c-2.62,12.38-0.65,23.7,8.33,33.15c4.8,5.05,10.86,7.29,17.83,7.09
			C275.67,351.12,276.27,351.21,276.86,351.25L276.86,351.25z"/>
		<path class="st0" d="M324.43,244.75c-5.19-10.7-14.64-15.25-25.24-18.18c-5.47-1.51-10.99-2.82-16.44-4.42
			c-22.48-6.6-33.41-32.51-23.42-53.87c1.44-3.09,3.56-5.75,5.43-8.58c5.71-8.6,13.93-13.44,23.23-16.93
			c8.9-3.34,18.14-3.09,27.4-2.46c4.55,0.31,4.54,0.36,2.83,4.56c-0.83,2.03-1.15,4.55-2.57,5.99c-1.61,1.63-4.03-0.28-6.15-0.31
			c-12.91-0.14-24.58,9.1-26.64,21.31c-2.3,13.62,5.28,26.68,18.09,31c3.37,1.13,6.84,1.96,10.25,2.96
			c10.5,3.09,14.97,8.63,15.81,19.58c0.48,6.27-0.49,12.39-2.06,18.43C324.87,244.1,324.67,244.33,324.43,244.75z"/>
		<path class="st4" d="M141.42,234.92c-0.29,4.53-0.71,9.06-0.83,13.59c-0.44,16.29,2.48,32.12,6.7,47.76
			c3.06,11.33,6.1,22.68,6.77,34.49c0.52,9.18-0.08,18.22-4.06,26.68c-4.28,9.09-10.72,15.93-20.8,18.58
			c-4.44,1.17-8.34,0.86-12.46-0.8c-0.09-0.35,0.11-0.55,0.36-0.72c9.18-6.18,13.19-15.29,14.65-25.85
			c1.42-10.24,0.35-20.43-0.71-30.6c-1.44-13.94-3.78-27.8-3.38-41.88c0.4-14.11,3.32-27.51,11.63-39.28
			c0.56-0.79,1.01-1.7,1.95-2.15C141.3,234.79,141.36,234.86,141.42,234.92z"/>
		<path class="st1" d="M79.32,486.29c2.1-6.69,5.93-12.4,10.31-17.75c4.52-5.52,10.07-9.79,16.31-13.23
			c1.85-1.02,3.83-0.84,5.74-1.08c16.29-2.05,29.01-9.85,38.35-23.33c3.06-4.42,5.84-8.99,8.27-13.89c0.97,0.98,0.74,2.12,0.91,3.11
			c1.58,8.94,3.93,17.74,5.05,26.77c0.29,2.36,1.03,4.78-1.07,6.78c-0.24,0.23-0.28,0.69-0.37,1.06
			c-2.36,9.73-9.06,15.23-18.02,18.52c-5.83,2.14-11.91,2.79-18.06,3.11c-9.44,0.48-18.93,0.27-28.28,2.09
			c-6.89,1.34-13.08,4.17-18.83,8.1C79.52,486.46,79.42,486.38,79.32,486.29z"/>
		<path class="st1" d="M190.93,493.88c2.55-2.57,5.02-4.99,7.09-7.77c9.5-12.72,11.53-26.84,8.2-42.07
			c-1.47-6.73-3.57-13.32-4.61-20.15c-0.94-6.21-1.13-12.38,1.46-18.31c0.33-0.76,0.71-1.51,1.13-2.23
			c2.88-4.91,3.36-4.99,7.68-1.53c5.14,4.12,10.43,8.05,15.21,12.63c3.52,3.37,5.73,6.86,6.1,12.2c1.02,14.92-1.42,28.85-9.36,41.61
			c-7.33,11.78-17.56,20.11-30.5,25.12C192.65,493.64,191.99,494.09,190.93,493.88z"/>
		<path class="st5" d="M319.37,259.83c-1.62-1.81-2.15-4.28-3.83-6.09c-1.76-1.89-3.49-3.77-5.77-5.07
			c-1.71-0.97-3.09-0.91-4.31,0.82c-0.88,1.24-1.67,2.51-2.3,3.89c-3.59,7.9-8,15.19-14.17,21.48
			c-7.35,7.51-14.16,15.54-19.13,24.92c-3.48,6.56-6.09,13.41-5.72,20.96c0.3,6.22,1.91,12.09,6.12,16.97
			c3.44,3.99,7.73,5.31,12.83,4.33c0.81-0.16,1.64-0.2,2.47-0.29c-7.38,5.51-20.23,5.49-27.2-5.6c-5.38-8.55-5.84-17.77-3.06-27.27
			c2.57-8.79,7.62-16.24,13-23.48c5.24-7.05,11.01-13.7,15.73-21.12c4.25-6.68,7.68-13.73,8.93-21.63c0.45-2.82,0.97-5.68,0.39-8.56
			c-0.23-1.16-0.07-1.96,1.45-1.58c5.87,1.47,11.72,2.98,16.87,6.35c5.34,3.51,8.72,8.26,9.41,14.75
			C321.34,255.94,319.92,257.75,319.37,259.83z"/>
		<path class="st0" d="M430.42,134.41c-0.37,12.69,3.08,23.71,9.65,33.81c0.61,0.93,0.43,1.41-0.27,2.09
			c-4.8,4.62-9.6,9.24-14.34,13.92c-0.94,0.93-1.49,0.5-2.25-0.18c-3.04-2.72-4.88-6.17-6.04-9.98c-2.37-7.77-3.81-15.73-4.32-23.84
			c-0.06-0.87-0.3-1.77,0.62-2.49C419,143.43,424.51,139.07,430.42,134.41z"/>
		<path class="st4" d="M452.64,117.54c-0.68,8.42,0.84,15.75,4.31,22.68c1.19,2.37,2.44,4.72,4.05,6.84c0.64,0.85,0.6,1.36-0.14,2.1
			c-4.99,4.98-9.98,9.96-14.9,15.01c-1,1.03-1.46,0.83-2.16-0.27c-4.58-7.21-7.49-15.02-8.59-23.5c-0.38-2.93-1.44-6.15-0.37-8.75
			c1.07-2.61,4.35-3.81,6.65-5.63C444.98,123.27,448.56,120.64,452.64,117.54z"/>
		<path class="st1" d="M376.37,128.24c-0.23-1.69,0.86-1.17,1.6-1.14c5.04,0.19,9.6,2.11,14.04,4.21
			c6.21,2.94,11.89,6.64,16.19,12.18c0.9,1.15,0.9,1.76-0.27,2.7c-5.67,4.54-11.19,9.28-16.46,14.29c-1.05,1-1.82,1.2-3.07,0.26
			c-2.42-1.83-5.04-3.37-7.87-4.48c-1.03-0.4-1.6-1.04-1.67-2.17c-0.49-8.54-1.59-17.03-2.46-25.54
			C376.38,128.39,376.37,128.24,376.37,128.24z"/>
		<path class="st4" d="M409.78,150.91c-0.6,6.25-0.27,12.04,0.86,17.77c1.14,5.81,2.55,11.54,6.1,16.46
			c0.27,0.37,0.64,0.67,0.83,1.07c0.58,1.21,2.77,1.53,2.35,2.94c-0.33,1.14-1.8,1.95-2.79,2.9c-3.81,3.66-3.86,3.73-8.19,0.88
			c-9.22-6.05-15.71-14.31-19.63-24.6c-0.25-0.65-0.7-1.3,0.21-1.98C396.15,161.34,402.75,156.28,409.78,150.91z"/>
		<path class="st1" d="M474.3,101.78c-0.47,9,2.23,16.88,7.09,24.11c0.55,0.82,0.35,1.32-0.25,1.95
			c-4.71,4.93-9.42,9.85-14.05,14.84c-1.09,1.17-1.59,0.79-2.38-0.24c-4.57-5.96-6.79-12.83-7.6-20.15
			c-0.84-7.69-0.7-7.71,5.61-12.33c3.6-2.64,7.2-5.29,10.8-7.93C473.62,101.94,473.79,101.93,474.3,101.78z"/>
		<path class="st0" d="M498.41,84.02c0.48,6.81,1.86,12.82,4.93,18.35c0.46,0.83,0,1.25-0.46,1.75
			c-5.2,5.72-10.42,11.42-15.58,17.17c-0.98,1.09-1.49,0.84-2.21-0.22c-4.34-6.39-6.47-13.47-6.74-21.14
			c-0.03-0.75-0.04-1.47,0.72-2.01C485.4,93.39,491.71,88.84,498.41,84.02z"/>
		<path class="st0" d="M335.22,156.57c3.82-7.5,7.37-14.42,10.89-21.36c2.15-4.25,4.12-8.6,6.85-12.53
			c0.59-0.85,1.13-1.96,2.42-1.71c1.13,0.22,1.37,1.31,1.67,2.24c1.5,4.64,1.9,9.48,2.53,14.27c0.57,4.34,0.72,8.74,1.09,13.11
			c0.08,1,0.09,1.77-1.29,1.78C351.31,152.46,343.49,153.99,335.22,156.57z"/>
		<path class="st1" d="M438.67,180.64c1.19,3.9,1.28,7.71,0.84,11.54c-0.51,4.43-1.16,8.84-1.7,13.27
			c-0.78,6.48-0.01,12.68,3.5,18.35c0.11,0.17,0.11,0.41,0.24,0.99c-3.9-1.64-7.09-3.8-9.63-6.82c-5.32-6.35-7.39-13.93-8.09-22
			c-0.08-0.88,0.14-1.61,0.81-2.24c4.38-4.17,8.75-8.37,13.12-12.55C437.97,180.99,438.25,180.88,438.67,180.64z"/>
		<path class="st1" d="M519.73,69.33c0.82,0.03,0.78,0.69,0.83,1.15c0.35,3.25,1.04,6.41,2.29,9.44c0.35,0.85-0.02,1.43-0.54,2.03
			c-4.47,5.13-8.94,10.25-13.38,15.4c-0.82,0.95-1.3,1.05-1.92-0.18c-2.31-4.56-3.71-9.4-4.82-14.36c-0.19-0.84,0.04-1.45,0.76-1.94
			c5.35-3.69,10.69-7.4,16.04-11.1C519.23,69.61,519.5,69.47,519.73,69.33z"/>
		<path class="st4" d="M546.25,53.24c-3.34,4.08-6.66,8.18-10.03,12.24c-3.03,3.66-6.12,7.29-9.3,11.07
			c-1.45-2.95-2.25-5.78-2.96-8.65c-0.34-1.38,0.55-1.89,1.45-2.48c6.25-4.12,12.33-8.49,18.76-12.35c0.32-0.19,0.58-0.48,0.87-0.72
			C545.69,52.32,546.18,52.49,546.25,53.24z"/>
		<path class="st1" d="M79.63,486.55c-0.14,0.13-0.38,0.39-0.4,0.38c-0.3-0.24-0.15-0.45,0.09-0.64
			C79.42,486.38,79.52,486.46,79.63,486.55z"/>
		<path class="st1" d="M276.87,351.25c0.02-0.07,0.05-0.13,0.07-0.2C276.91,351.12,276.89,351.19,276.87,351.25L276.87,351.25z"/>
		<path class="st4" d="M141.24,234.73c0.08-0.11,0.16-0.22,0.25-0.34c0.22,0.21,0.18,0.38-0.06,0.53
			C141.36,234.86,141.3,234.79,141.24,234.73z"/>
		<path class="st0" d="M366.11,295.83c-0.02,3.47-2.58,4.87-4.99,3.36c-2.11-1.33-4.13-2.81-6.12-4.31
			c-1.51-1.14-2.85-1.09-4.32,0.06c-1.73,1.35-3.52,2.62-5.31,3.9c-1.4,1-2.87,1.38-4.41,0.28c-1.56-1.12-1.57-2.63-1.04-4.27
			c0.66-2.01,1.2-4.07,1.99-6.03c0.84-2.09,0.11-3.5-1.55-4.68c-1.73-1.22-3.46-2.44-5.18-3.69c-1.3-0.95-2.24-2.15-1.72-3.86
			c0.54-1.76,1.87-2.41,3.69-2.34c2.12,0.08,4.24,0.02,6.36,0c2.16-0.02,3.54-1.01,4.16-3.14c0.61-2.11,1.35-4.18,2.02-6.26
			c0.5-1.55,1.54-2.36,3.19-2.4c1.68-0.04,2.7,0.81,3.21,2.34c0.62,1.87,1.24,3.73,1.8,5.61c0.95,3.17,1.82,3.83,5.21,3.85
			c1.89,0.01,3.79,0.02,5.68,0c1.58-0.02,2.84,0.46,3.42,2.06c0.61,1.68-0.03,2.95-1.38,3.95c-1.94,1.45-3.89,2.87-5.83,4.33
			c-1.44,1.08-1.86,2.34-1.16,4.16C364.82,291.29,365.51,293.92,366.11,295.83z"/>
		<path class="st2" d="M418.12,220.96c-0.84,1.58,0.41,2.37,1.45,3.24c0.98,0.82,2.39,1.64,1.19,3.08
			c-1.29,1.55-2.36,0.17-3.45-0.63c-0.57-0.42-0.92-1.55-2.02-0.73c-1.11,0.83-2.16,1.58-0.44,2.84c1.1,0.81,1.36,1.88,0.44,2.92
			c-0.89,1.02-2.02,0.75-2.74-0.19c-1.62-2.13-3.42-2.27-5.58-0.9c-0.49,0.31-1.14,0.47-1.72,0.52c-1.63,0.12-2.07,0.87-1.49,2.37
			c0.25,0.63,0.39,1.3,0.5,1.97c0.11,0.67,0.19,1.44-0.73,1.64c-0.84,0.18-1.49-0.1-1.78-0.98c-0.02-0.07-0.1-0.13-0.1-0.2
			c-0.04-4.16-3.01-4.38-6.08-4.65c-1.12-0.1-1.57,0-1.86,1.21c-0.28,1.15,0.02,3.3-2.01,2.89c-2.08-0.42-1.18-2.38-0.89-3.62
			c0.33-1.4,0.03-2.15-1.28-2.58c-0.14-0.05-0.26-0.15-0.39-0.23c-3.64-2.13-3.68-2.08-5.96,1.65c-0.61,1-0.79,3.28-2.65,2.21
			c-1.66-0.96-0.25-2.65,0.46-3.5c2.56-3.06,2.9-5.84-0.07-8.81c-0.83-0.83-1.19-2.04,0.03-2.96c1.26-0.95,1.87,0.21,2.59,0.94
			c6.14,6.23,14.43,8.1,21.8,4.95c1.77-0.76,3.25-1.9,4.65-3.19c1.23-1.14,2.56-2.16,4.23-2.55
			C416.43,217.15,418.21,218.64,418.12,220.96z"/>
		<path class="st0" d="M164.58,234.31c1.82,0.27,3.75-0.25,5.71-0.41c1.59-0.13,2.3-1.34,2.76-2.67c0.68-2,1.3-4.02,1.94-6.04
			c0.5-1.58,1.39-2.64,3.21-2.69c1.82-0.05,2.75,0.92,3.28,2.54c0.78,2.37,1.67,4.7,2.47,7.06c0.42,1.24,1.23,1.81,2.54,1.86
			c2.57,0.09,5.13,0.27,7.7,0.37c1.54,0.06,2.98,0.38,3.39,2.06c0.41,1.66-0.04,3.08-1.65,4.1c-1.72,1.09-3.3,2.4-4.97,3.58
			c-1.66,1.18-2.31,2.58-1.67,4.69c0.7,2.31,1.86,4.49,2.04,6.94c0.1,1.36,0.19,2.76-1.31,3.59c-1.47,0.81-2.75,0.46-4.01-0.48
			c-1.7-1.27-3.43-2.49-5.14-3.74c-1.62-1.19-3.17-1.57-4.93-0.11c-1.74,1.45-3.65,2.69-5.49,4.03c-1.31,0.95-2.68,1.09-4.01,0.12
			c-1.38-1.01-1.74-2.38-1.17-4.03c0.69-2,1.15-4.1,1.97-6.04c0.95-2.26,0.25-3.76-1.61-5.05c-1.62-1.12-3.17-2.33-4.78-3.46
			c-1.46-1.03-2.51-2.26-1.85-4.17c0.67-1.94,2.21-2.3,4.04-2.05C163.49,234.36,163.96,234.31,164.58,234.31z"/>
		<path class="st2" d="M518.91,311.04c0.08-4.64,1.2-8.39,2.76-12.04c0.26-0.61,0.56-1.38,1.45-1.07c0.87,0.31,0.7,1.03,0.49,1.72
			c-0.09,0.29-0.13,0.59-0.2,0.89c-0.6,2.64-0.6,2.64,2.02,2.45c3.52-0.26,6.97,1.9,8.74,5.76c2.41,5.23,1.96,10.34-1.26,15.1
			c-2.41,3.56-4.97,3.76-8.1,0.83C520.69,320.81,519.01,315.94,518.91,311.04z"/>
	</g>
</g>
<g id="Capa_2">
	<radialGradient id="SVGID_1_" cx="440.2912" cy="455.4405" r="49.8247" gradientUnits="userSpaceOnUse">
		<stop  offset="0" style="stop-color:#FFFFFF"/>
		<stop  offset="0.2017" style="stop-color:#FFFCFF"/>
		<stop  offset="0.3285" style="stop-color:#FFF4FF"/>
		<stop  offset="0.4347" style="stop-color:#FFE5FF"/>
		<stop  offset="0.5294" style="stop-color:#FFD0FF"/>
		<stop  offset="0.6167" style="stop-color:#FFB6FF"/>
		<stop  offset="0.6984" style="stop-color:#FF95FF"/>
		<stop  offset="0.7758" style="stop-color:#FF6DFF"/>
		<stop  offset="0.8497" style="stop-color:#FF40FF"/>
		<stop  offset="0.9186" style="stop-color:#FF0EFF"/>
		<stop  offset="0.9356" style="stop-color:#FF00FF"/>
	</radialGradient>
	<polygon class="st6" points="440.29,406.88 456.07,438.85 491.35,443.98 465.82,468.86 471.85,504 440.29,487.41 408.74,504 
		414.76,468.86 389.23,443.98 424.51,438.85 	"/>
</g>
</svg>
